HIERARCHY
ROOT Hips
{
	OFFSET -0.001795 -0.223333 0.028219
	CHANNELS 6 Xposition Yposition Zposition Zrotation Yrotation Xrotation 
	JOINT LeftUpLeg
	{
		OFFSET 0.069520 -0.091406 -0.006815
		CHANNELS 3 Zrotation Yrotation Xrotation
		JOINT LeftLeg
		{
			OFFSET 0.034277 -0.375199 -0.004496
			CHANNELS 3 Zrotation Yrotation Xrotation
			JOINT LeftFoot
			{
				OFFSET -0.013596 -0.397961 -0.043693
				CHANNELS 3 Zrotation Yrotation Xrotation
				JOINT LeftToe
				{
					OFFSET 0.026358 -0.055791 0.119288
					CHANNELS 3 Zrotation Yrotation Xrotation
					End Site
					{
						OFFSET 0.000000 0.000000 0.000000
					}
				}
			}
		}
	}
	JOINT RightUpLeg
	{
		OFFSET -0.067670 -0.090522 -0.004320
		CHANNELS 3 Zrotation Yrotation Xrotation
		JOINT RightLeg
		{
			OFFSET -0.038290 -0.382569 -0.008850
			CHANNELS 3 Zrotation Yrotation Xrotation
			JOINT RightFoot
			{
				OFFSET 0.015774 -0.398415 -0.042312
				CHANNELS 3 Zrotation Yrotation Xrotation
				JOINT RightToe
				{
					OFFSET -0.025372 -0.048144 0.123348
					CHANNELS 3 Zrotation Yrotation Xrotation
					End Site
					{
						OFFSET 0.000000 0.000000 0.000000
					}
				}
			}
		}
	}
	JOINT Spine
	{
		OFFSET -0.002533 0.108963 -0.026696
		CHANNELS 3 Zrotation Yrotation Xrotation
		JOINT Spine1
		{
			OFFSET 0.005487 0.135180 0.001092
			CHANNELS 3 Zrotation Yrotation Xrotation
			JOINT Spine2
			{
				OFFSET 0.001457 0.052922 0.025425
				CHANNELS 3 Zrotation Yrotation Xrotation
				JOINT Neck
				{
					OFFSET -0.002778 0.213870 -0.042857
					CHANNELS 3 Zrotation Yrotation Xrotation
					JOINT Head
					{
						OFFSET 0.005152 0.064970 0.051349
						CHANNELS 3 Zrotation Yrotation Xrotation
						End Site
						{
							OFFSET 0.000000 0.000000 0.000000
						}
					}
				}
				JOINT LeftShoulder
				{
					OFFSET 0.078845 0.121749 -0.034090
					CHANNELS 3 Zrotation Yrotation Xrotation
					JOINT LeftArm
					{
						OFFSET 0.090977 0.030469 -0.008868
						CHANNELS 3 Zrotation Yrotation Xrotation
						JOINT LeftForeArm
						{
							OFFSET 0.259612 -0.012772 -0.027456
							CHANNELS 3 Zrotation Yrotation Xrotation
							JOINT LeftHand
							{
								OFFSET 0.249234 0.008986 -0.001171
								CHANNELS 3 Zrotation Yrotation Xrotation
								End Site
								{
									OFFSET 0.000000 0.000000 0.000000
								}
							}
						}
					}
				}
				JOINT RightShoulder
				{
					OFFSET -0.081759 0.118833 -0.038615
					CHANNELS 3 Zrotation Yrotation Xrotation
					JOINT RightArm
					{
						OFFSET -0.096012 0.032551 -0.009143
						CHANNELS 3 Zrotation Yrotation Xrotation
						JOINT RightForeArm
						{
							OFFSET -0.253742 -0.013329 -0.021401
							CHANNELS 3 Zrotation Yrotation Xrotation
							JOINT RightHand
							{
								OFFSET -0.255298 0.007772 -0.005559
								CHANNELS 3 Zrotation Yrotation Xrotation
								End Site
								{
									OFFSET 0.000000 0.000000 0.000000
								}
							}
						}
					}
				}
			}
		}
	}
}
MOTION
Frames: 16
Frame Time: 0.050000
0.000000 0.796997 0.000000 -2.402210 3.541622 4.882063 6.216788 -0.946606 -18.374875 -3.445668 -0.627529 46.870500 10.718029 22.141137 -28.590028 0.000000 0.000000 0.000000 -8.339301 0.765694 -51.138481 6.274943 -1.877313 39.398157 2.808512 4.898537 3.724098 0.000000 0.000000 0.000000 4.652263 -4.794856 45.292670 0.275819 -0.223221 2.175089 -4.978141 0.696394 5.981290 11.207155 -5.253133 -16.909121 0.000000 0.000000 0.000000 -17.964233 -30.777894 14.467763 -45.870987 -34.636614 7.862085 44.308601 -38.365062 -14.310915 0.000000 0.000000 0.000000 16.719837 19.707277 9.773594 51.772224 19.648095 3.103033 -21.474952 60.266632 -8.872909 0.000000 0.000000 0.000000 
-0.015489 0.788131 0.013428 -2.433726 3.072166 5.553797 7.784977 -0.776115 -19.542801 -4.147335 -0.170603 50.709858 10.335096 20.908022 -27.293163 0.000000 0.000000 0.000000 -6.670021 1.711246 -54.539259 5.415678 -1.538331 45.077403 2.275991 4.840201 1.650509 0.000000 0.000000 0.000000 4.478973 -4.749940 46.226905 0.137724 -0.273829 5.355237 -5.166504 2.094504 2.461500 9.200163 -3.217637 -19.852322 0.000000 0.000000 0.000000 -17.251433 -30.983509 13.956524 -46.063662 -36.819148 9.190150 43.559257 -37.948814 -14.237531 0.000000 0.000000 0.000000 17.890688 18.333253 9.524498 48.460660 18.703106 2.578580 -20.059190 63.440426 -8.453300 0.000000 0.000000 0.000000 
-0.030647 0.785944 0.027542 -1.777361 3.436435 5.209628 8.126654 -0.724241 -18.936929 -3.539858 -0.720576 52.655495 9.525978 17.609913 -24.822714 0.000000 0.000000 0.000000 -5.852702 1.996473 -54.791852 4.811784 -1.337869 47.997285 1.671554 4.714869 -0.665061 0.000000 0.000000 0.000000 5.361968 -5.384762 47.445862 0.730161 -0.489654 3.157070 -6.277642 2.342367 5.313817 9.239022 -2.772999 -22.809203 0.000000 0.000000 0.000000 -17.763470 -30.771624 13.848185 -46.392851 -37.556494 9.351103 45.133366 -37.477477 -14.597960 0.000000 0.000000 0.000000 18.325348 19.744361 10.592354 43.361330 20.404540 2.394757 -21.948971 60.493433 -8.948629 0.000000 0.000000 0.000000 
-0.045239 0.785030 0.042539 -1.548682 3.860132 5.084377 7.673148 -0.790776 -18.667480 -1.538564 -2.292275 55.361586 8.730138 15.020881 -21.860399 0.000000 0.000000 0.000000 -5.457655 2.113028 -56.618234 5.481929 -1.960367 52.698977 1.718620 4.069856 0.566800 0.000000 0.000000 0.000000 6.674935 -6.236043 48.299080 0.175474 -0.263994 4.416439 -6.288020 1.421532 5.384119 7.308344 -1.626686 -24.257288 0.000000 0.000000 0.000000 -17.744571 -30.570336 13.989247 -47.796051 -39.874821 10.725516 50.562325 -35.569291 -15.624644 0.000000 0.000000 0.000000 12.891791 20.334336 9.692040 45.853905 22.659239 3.737008 -29.002090 61.131009 -13.283537 0.000000 0.000000 0.000000 
-0.059399 0.783025 0.059544 -0.996633 4.175697 4.854746 7.348578 -0.807118 -17.766276 -0.443849 -3.252342 56.690758 8.321198 14.155474 -19.175766 0.000000 0.000000 0.000000 -4.354597 2.579980 -56.712430 4.570257 -1.516534 55.488146 1.198579 3.894167 -1.381154 0.000000 0.000000 0.000000 6.916178 -6.698954 50.042934 0.185841 -0.253936 4.005221 -6.176537 1.869100 5.524792 7.388822 -1.664574 -23.938362 0.000000 0.000000 0.000000 -19.271851 -31.731893 14.835623 -48.809506 -39.813766 11.048596 54.711499 -36.770948 -17.903936 0.000000 0.000000 0.000000 12.019582 20.479646 9.706408 44.031176 23.158378 3.666784 -31.066265 60.820495 -14.309065 0.000000 0.000000 0.000000 
-0.072679 0.779247 0.078071 -0.602221 4.901420 4.843401 7.199156 -0.785574 -16.172706 1.154810 -4.683105 57.421953 7.637174 11.424884 -19.932815 0.000000 0.000000 0.000000 -3.667294 2.709904 -56.704126 4.374224 -1.626837 57.954820 0.426637 3.373638 -3.975799 0.000000 0.000000 0.000000 7.505508 -7.294802 50.708083 -0.054209 -0.129308 3.797253 -5.775099 2.072320 5.755817 6.694254 -1.258904 -24.058142 0.000000 0.000000 0.000000 -21.344711 -31.480116 15.039352 -50.568183 -40.101426 11.762561 56.362630 -36.818370 -18.626966 0.000000 0.000000 0.000000 10.406368 20.442815 9.448130 44.221367 23.214870 3.744686 -33.171024 60.273664 -15.285788 0.000000 0.000000 0.000000 
-0.085567 0.777376 0.097401 0.187674 5.901624 5.209948 6.676300 -0.866533 -15.974949 2.084709 -5.712847 57.676764 7.415935 11.780013 -16.111677 0.000000 0.000000 0.000000 -3.708114 2.379566 -56.743779 4.594371 -2.112828 59.987905 -0.197895 2.829169 -6.025597 0.000000 0.000000 0.000000 8.340866 -8.075674 51.150756 -0.442542 0.103786 2.591211 -5.589292 1.626969 6.170558 6.398518 -1.137133 -24.102723 0.000000 0.000000 0.000000 -23.671104 -30.223095 14.861100 -53.451777 -39.458422 12.328648 59.566219 -38.482818 -20.766537 0.000000 0.000000 0.000000 10.150865 19.930678 9.124874 43.517750 22.853664 3.494008 -33.806287 60.128839 -15.644866 0.000000 0.000000 0.000000 
-0.098447 0.775384 0.116452 0.675872 6.524443 5.342722 7.188712 -0.792751 -14.950312 2.174330 -5.973141 57.642043 7.431184 11.575922 -16.520152 0.000000 0.000000 0.000000 -3.309843 2.390762 -56.579114 4.764688 -2.503213 61.913523 -0.716240 2.311109 -7.704156 0.000000 0.000000 0.000000 8.557579 -8.462642 51.673086 -0.448091 0.128734 1.911202 -5.499352 2.249169 6.571861 6.571138 -0.880912 -26.054404 0.000000 0.000000 0.000000 -24.903982 -29.187196 14.149742 -56.163861 -39.442744 13.191212 60.651674 -39.484809 -21.991325 0.000000 0.000000 0.000000 10.664842 18.820535 8.818833 43.103290 22.335990 3.200498 -34.872639 60.306288 -16.127693 0.000000 0.000000 0.000000 
-0.112060 0.774279 0.134690 1.253916 8.073412 5.862509 7.682356 -0.803701 -14.882649 2.315855 -6.497482 57.087873 7.688437 11.906969 -17.010139 0.000000 0.000000 0.000000 -3.207008 1.956775 -56.399595 4.988707 -3.202689 63.217447 -1.314332 1.405001 -9.364479 0.000000 0.000000 0.000000 9.215230 -9.210228 51.454454 -0.221974 0.069805 0.506945 -5.588094 2.025399 7.985402 6.293481 -0.403983 -28.720517 0.000000 0.000000 0.000000 -26.078206 -28.679645 14.031913 -57.713136 -40.025029 13.912414 62.977408 -38.153447 -22.095798 0.000000 0.000000 0.000000 9.716808 17.715804 8.194797 44.833942 22.482818 3.410260 -36.067964 60.496469 -16.695356 0.000000 0.000000 0.000000 
-0.126682 0.773580 0.151773 2.027722 9.316967 5.897165 8.177670 -0.771455 -14.068080 2.244795 -6.748937 56.477425 7.989209 11.938880 -18.782534 0.000000 0.000000 0.000000 -2.656530 1.855576 -56.270513 4.465530 -3.286996 65.196278 -1.573413 0.699660 -9.633266 0.000000 0.000000 0.000000 9.158126 -9.664641 52.112131 -0.255066 0.137663 -0.737795 -5.454112 1.979177 8.678094 6.583666 -0.247803 -30.955774 0.000000 0.000000 0.000000 -26.003821 -27.926697 13.442030 -59.354431 -40.418806 14.608420 64.041292 -36.842968 -21.747631 0.000000 0.000000 0.000000 10.166080 16.538437 7.753702 45.445059 22.277784 3.348751 -36.451728 61.694374 -17.205690 0.000000 0.000000 0.000000 
-0.141828 0.772476 0.167215 2.636661 10.585741 6.219691 9.122108 -0.770812 -14.473866 2.216714 -7.068697 56.235214 7.854791 10.682076 -20.064277 0.000000 0.000000 0.000000 -2.237731 1.677095 -56.312001 4.447591 -3.760795 66.588345 -1.859427 -0.118074 -9.865026 0.000000 0.000000 0.000000 8.756583 -9.886364 52.465911 -0.422646 0.232362 -1.154103 -5.306689 1.588426 9.085153 6.388720 -0.004232 -32.459514 0.000000 0.000000 0.000000 -25.012044 -27.209247 12.879045 -59.684733 -41.518343 15.270770 64.062047 -34.438630 -20.161025 0.000000 0.000000 0.000000 10.873114 16.083850 7.647441 46.050944 22.102808 3.297165 -38.272607 62.394242 -18.504791 0.000000 0.000000 0.000000 
-0.156472 0.771800 0.180596 3.469031 11.202403 7.132504 9.978589 -0.764268 -14.622919 2.081076 -6.911619 55.031962 8.017880 11.028428 -20.096436 0.000000 0.000000 0.000000 -1.447748 1.867696 -56.882423 3.726977 -3.388963 67.594596 -2.080286 -0.628178 -10.245646 0.000000 0.000000 0.000000 8.380425 -9.878309 52.466535 -0.079590 0.141121 -2.546447 -5.865245 1.820691 9.868032 7.062703 -0.018815 -34.290566 0.000000 0.000000 0.000000 -23.867482 -27.120827 12.500688 -58.067102 -41.820798 14.789904 63.374607 -32.138220 -18.525746 0.000000 0.000000 0.000000 12.353936 15.736047 7.871547 46.577074 21.977722 3.168610 -40.576012 62.342371 -19.607465 0.000000 0.000000 0.000000 
-0.169853 0.770610 0.191887 4.127296 11.753213 7.845012 10.658946 -0.784381 -15.435908 1.148004 -6.497256 55.419920 7.914095 11.693878 -17.606146 0.000000 0.000000 0.000000 -0.810531 2.000766 -57.685885 3.350023 -3.275676 68.838122 -2.116324 -1.095661 -9.594379 0.000000 0.000000 0.000000 8.239310 -9.921696 52.235958 0.021889 0.113613 -2.885035 -6.350292 1.519045 10.231143 7.313374 0.075756 -36.015722 0.000000 0.000000 0.000000 -21.548879 -26.692606 11.955222 -58.405007 -42.239760 14.992382 63.727201 -30.082521 -17.338814 0.000000 0.000000 0.000000 12.741310 15.209941 7.700136 48.706309 22.721528 3.710515 -41.594823 62.658908 -20.195281 0.000000 0.000000 0.000000 
-0.181390 0.770142 0.201272 4.453544 11.485047 8.093615 11.315462 -0.750551 -15.912368 -0.773560 -5.243875 56.320693 8.267269 13.439563 -16.326810 0.000000 0.000000 0.000000 0.192819 2.613527 -57.976312 2.943297 -2.857131 69.687498 -2.060869 -1.277620 -8.886885 0.000000 0.000000 0.000000 7.574233 -9.475553 52.220593 0.144425 0.087490 -3.461086 -6.485532 1.468800 10.460607 7.325890 0.254217 -37.753730 0.000000 0.000000 0.000000 -20.252912 -26.439004 11.664534 -58.428405 -42.707210 15.186781 64.233159 -28.857159 -16.716457 0.000000 0.000000 0.000000 14.655996 15.510053 8.174426 48.519335 23.042301 3.694566 -42.880666 62.089709 -20.713565 0.000000 0.000000 0.000000 
-0.190859 0.768049 0.208498 4.717655 12.274556 8.433743 12.017526 -0.759337 -16.325027 -2.357659 -4.474345 56.823550 8.688613 15.291295 -14.003723 0.000000 0.000000 0.000000 0.492324 2.509059 -58.159415 3.098311 -3.272856 70.158998 -2.290225 -1.860465 -9.175495 0.000000 0.000000 0.000000 7.824507 -9.627508 51.355885 0.483705 -0.057190 -3.395576 -6.766138 1.118927 10.252722 6.797193 0.478481 -37.880315 0.000000 0.000000 0.000000 -20.161021 -26.023402 11.411398 -57.759283 -42.242889 14.700032 65.344877 -29.318833 -17.395319 0.000000 0.000000 0.000000 14.740121 15.437438 8.158366 49.323773 23.313632 3.948371 -45.164758 61.991893 -22.018872 0.000000 0.000000 0.000000 
-0.198123 0.766955 0.213312 4.863232 12.794019 8.324639 12.426141 -0.753756 -16.213119 -3.530395 -3.871356 57.002392 9.623638 18.028200 -12.820940 0.000000 0.000000 0.000000 1.016919 2.620798 -57.879865 2.881831 -3.288947 70.427999 -2.464736 -2.309171 -9.406449 0.000000 0.000000 0.000000 7.975276 -9.722446 50.889755 0.347973 0.007140 -3.450810 -7.250901 0.779679 9.887597 6.850984 0.336485 -36.662109 0.000000 0.000000 0.000000 -20.229807 -26.671633 11.798781 -56.276728 -41.801164 14.006600 69.740888 -29.906408 -19.389681 0.000000 0.000000 0.000000 15.293097 16.024944 8.552254 48.866995 23.688712 4.041387 -47.794282 61.546758 -23.457477 0.000000 0.000000 0.000000 
